<svg height='100px' width='100px'  fill="#000000" xmlns="http://www.w3.org/2000/svg" xmlns:xlink="http://www.w3.org/1999/xlink" version="1.1" x="0px" y="0px" viewBox="0 0 100 100" style="enable-background:new 0 0 100 100;" xml:space="preserve"><path d="M90.6777344,15H9.3222656C6.9389648,15,5,16.9389648,5,19.3222656v53.3554688C5,75.0610352,6.9389648,77,9.3222656,77  h34.1630859c-0.147644,6.590332-1.6976318,10.588501-1.7143555,10.6298828L41.2275391,89H49h8.2998047l1.4716797-0.0014648  l-0.5424805-1.3686523C58.2122803,87.588501,56.6622925,83.590332,56.5146484,77h34.1630859  C93.0610352,77,95,75.0610352,95,72.6777344V19.3222656C95,16.9389648,93.0610352,15,90.6777344,15z M55.9179688,87H49h-4.9179688  c0.5183716-1.7827759,1.2970581-5.2506714,1.3980103-10h9.039978C54.6209717,81.7493286,55.3995972,85.2172241,55.9179688,87z   M93,72.6777344C93,73.9580078,91.9580078,75,90.6777344,75H9.3222656C8.0419922,75,7,73.9580078,7,72.6777344V66h86V72.6777344z   M93,64H7V19.3222656C7,18.0419922,8.0419922,17,9.3222656,17h81.3554688C91.9580078,17,93,18.0419922,93,19.3222656V64z"></path><circle cx="50" cy="70" r="2"></circle><rect x="13" y="24" width="4" height="2"></rect><rect x="80" y="24" width="8" height="2"></rect><rect x="40.9689217" y="41.5137024" transform="matrix(0.4184698 -0.9082307 0.9082307 0.4184698 -9.9942904 69.4183121)" width="16.4850063" height="1.9999392"></rect><polygon points="39.1547852,34.2939453 30.2885742,42.5136719 39.1547852,50.7333984 40.5141602,49.2666016 33.2299805,42.5136719   40.5141602,35.7607422 "></polygon><polygon points="59.4858398,35.7607422 66.7700195,42.5136719 59.4858398,49.2666016 60.8452148,50.7333984 69.7114258,42.5136719   60.8452148,34.2939453 "></polygon><rect x="13" y="32" width="9" height="2"></rect><rect x="13" y="41" width="11" height="2"></rect><rect x="80" y="32" width="8" height="2"></rect><rect x="13" y="50" width="5" height="2"></rect><rect x="20" y="50" width="9" height="2"></rect><rect x="77" y="41" width="5" height="2"></rect><rect x="85" y="41" width="3" height="2"></rect><rect x="25" y="32" width="3" height="2"></rect><rect x="13" y="58" width="13" height="2"></rect><rect x="78" y="58" width="10" height="2"></rect><rect x="74" y="50" width="14" height="2"></rect><rect x="70" y="58" width="4" height="2"></rect><rect x="72" y="24" width="5" height="2"></rect><rect x="20" y="24" width="11" height="2"></rect><rect x="74" y="32" width="4" height="2"></rect></svg>