<svg height='100px' width='100px'  fill="#000000" xmlns="http://www.w3.org/2000/svg" xmlns:xlink="http://www.w3.org/1999/xlink" version="1.1" x="0px" y="0px" viewBox="0 0 512 512" enable-background="new 0 0 512 512" xml:space="preserve"><g><g><g><g><path d="M324.36,449.496H90.551c-20.182,0-36.602-17.633-36.602-39.307v-129.82c0-1.657,1.343-3,3-3s3,1.343,3,3v129.82      c0,18.365,13.728,33.307,30.602,33.307h233.81c16.854,0,30.567-14.941,30.567-33.307v-26.486      c-0.001-0.025-0.001-0.051-0.001-0.076v-77.897c0-1.657,1.343-3,3-3s3,1.343,3,3v77.821c0.001,0.025,0.001,0.051,0.001,0.076      v26.563C360.928,431.863,344.523,449.496,324.36,449.496z M357.927,258.729c-1.657,0-3-1.343-3-3v-32.865      c-7.812-9.078-15.605-19.968-15.968-32.416c-0.009-0.305-0.013-0.604-0.013-0.902c0-9.947,5.107-16.63,12.708-16.63      c1.062,0,2.154,0.13,3.272,0.39V62.31c0-18.365-13.713-33.306-30.567-33.306H90.551c-16.874,0-30.602,14.941-30.602,33.306      v168.059c0,1.657-1.343,3-3,3s-3-1.343-3-3V62.31c0-21.673,16.419-39.306,36.602-39.306h233.809      c20.163,0,36.567,17.633,36.567,39.306v115.275c0,1.039-0.537,2.003-1.42,2.55c-0.884,0.547-1.985,0.598-2.915,0.137      c-1.81-0.899-3.471-1.355-4.938-1.355c-4.946,0-6.708,5.491-6.708,10.63c0,0.241,0.004,0.484,0.011,0.729      c0.318,10.946,7.879,21.056,15.232,29.5c0.476,0.546,0.737,1.246,0.737,1.97v33.983      C360.927,257.387,359.584,258.729,357.927,258.729z"></path></g><g><path d="M335.344,403.248H79.535c-1.657,0-3-1.344-3-3V209.451c0-1.657,1.343-3,3-3c1.657,0,3,1.343,3,3v187.797h249.809      v-50.395c0-1.658,1.343-3,3-3s3,1.342,3,3v53.395C338.344,401.904,337.001,403.248,335.344,403.248z M335.344,299.854      c-1.657,0-3-1.342-3-3V55.663H82.535v103.788c0,1.657-1.343,3-3,3c-1.657,0-3-1.343-3-3V52.663c0-1.657,1.343-3,3-3h255.809      c1.657,0,3,1.343,3,3v244.19C338.344,298.511,337.001,299.854,335.344,299.854z"></path></g><g><path d="M195.233,436.556c-6.83,0-12.386-5.557-12.386-12.386s5.556-12.386,12.386-12.386s12.387,5.557,12.387,12.386      S202.063,436.556,195.233,436.556z M195.233,417.784c-3.521,0-6.386,2.864-6.386,6.386c0,3.522,2.865,6.386,6.386,6.386      s6.387-2.863,6.387-6.386C201.62,420.648,198.754,417.784,195.233,417.784z"></path></g><g><path d="M250.899,184.822H139.6c-3.901,0-7.074-3.173-7.074-7.074V105.33c0-3.901,3.173-7.074,7.074-7.074h111.299      c3.901,0,7.074,3.173,7.074,7.074v72.418C257.973,181.649,254.8,184.822,250.899,184.822z M139.6,104.256      c-0.592,0-1.074,0.482-1.074,1.074v72.418c0,0.592,0.482,1.074,1.074,1.074h111.299c0.592,0,1.074-0.482,1.074-1.074V105.33      c0-0.592-0.482-1.074-1.074-1.074H139.6z"></path></g><g><path d="M180.161,161.969c-0.548,0-1.095-0.15-1.576-0.447c-0.885-0.546-1.424-1.513-1.424-2.553v-34.891      c0-1.04,0.539-2.005,1.423-2.552c0.885-0.547,1.989-0.597,2.919-0.131l34.852,17.427c1.016,0.508,1.658,1.546,1.658,2.682      c0,1.136-0.641,2.175-1.656,2.684l-34.852,17.464C181.081,161.863,180.62,161.969,180.161,161.969z M183.161,128.932v25.178      l25.149-12.602L183.161,128.932z"></path></g><g><path d="M253.833,200.563h-62.542c-1.657,0-3-1.343-3-3c0-1.657,1.343-3,3-3h62.542c1.657,0,3,1.343,3,3      C256.833,199.22,255.489,200.563,253.833,200.563z"></path></g><g><path d="M377.354,371.439c-0.26,0-0.52-0.035-0.772-0.103l-19.424-5.183c-1.313-0.35-2.228-1.538-2.228-2.897V232.631      c0-0.931,0.434-1.81,1.17-2.377c0.739-0.568,1.699-0.762,2.6-0.522l3.93,1.041c-12.556-12.382-24.481-25.296-24.972-40.313      c-0.011-0.3-0.015-0.589-0.015-0.876c0-9.974,5.434-16.675,13.521-16.675c10.149,0,22.271,10.244,34.131,28.845      c3.128,4.917,8.222,7.039,14.119,9.496c10.537,4.389,23.594,9.827,25.356,34.862l5.122,2.79c1.212,0.66,1.817,2.062,1.468,3.396      l-0.521,1.988l-29.336,109.457c-0.28,1.045-1.102,1.856-2.148,2.128l-21.25,5.477      C377.856,371.408,377.604,371.439,377.354,371.439z M360.93,360.953l16.438,4.385l18.792-4.842l28.799-107.451l-4.52-2.461      c-0.921-0.501-1.513-1.444-1.563-2.49c-1.101-22.697-11.142-26.879-21.771-31.308c-6.262-2.607-12.734-5.304-16.873-11.812      c-15.423-24.188-26.149-26.067-29.07-26.067c-5.544,0-7.521,5.515-7.521,10.675c0,0.228,0.005,0.457,0.012,0.689      c0.457,14.018,13.815,27.078,26.736,39.708c1.555,1.519,3.1,3.029,4.612,4.533c0.965,0.958,1.164,2.446,0.485,3.625      c-0.68,1.179-2.067,1.754-3.379,1.4l-4.728-1.271c-0.059-0.016-0.116-0.033-0.174-0.052l-0.299-0.1l-5.98-1.584L360.93,360.953      L360.93,360.953z"></path></g><g><path d="M449.35,390.734c-0.257,0-0.519-0.032-0.777-0.104l-53.547-14.342c-0.77-0.205-1.425-0.708-1.821-1.396      c-0.398-0.688-0.506-1.509-0.3-2.276l33.047-123.357c0.206-0.769,0.709-1.424,1.397-1.822s1.509-0.507,2.276-0.299      l53.547,14.373c1.602,0.431,2.549,2.074,2.12,3.675l-33.047,123.325C451.887,389.852,450.674,390.734,449.35,390.734z       M399.475,371.271l47.752,12.789l31.494-117.531l-47.752-12.817L399.475,371.271z"></path></g><g><path d="M429.979,364.836c-1.037,0-2.075-0.138-3.084-0.408c-5.171-1.392-8.782-6.098-8.782-11.443      c0-1.036,0.138-2.074,0.409-3.086c1.395-5.185,6.117-8.805,11.487-8.805c1.017,0,2.032,0.133,3.021,0.393      c5.19,1.395,8.804,6.101,8.804,11.447c0,1.037-0.138,2.074-0.409,3.086C440.039,361.208,435.331,364.836,429.979,364.836z       M430.009,347.094c-2.662,0-5.003,1.795-5.692,4.362c-0.137,0.503-0.204,1.017-0.204,1.526c0,2.64,1.785,4.963,4.342,5.649      c0.5,0.136,1.013,0.203,1.524,0.203c2.641,0,4.964-1.797,5.65-4.37c0.137-0.508,0.205-1.021,0.205-1.533      c0-2.639-1.786-4.961-4.343-5.647C431.016,347.159,430.511,347.094,430.009,347.094z"></path></g><g><path d="M422.039,395.786c-0.257,0-0.518-0.033-0.778-0.104l-40.419-10.824l-8.41,4.854c-0.688,0.396-1.508,0.504-2.276,0.299      l-13.002-3.486c-1.601-0.428-2.551-2.073-2.12-3.674c0.43-1.601,2.078-2.553,3.675-2.121l11.802,3.164l8.409-4.854      c0.688-0.396,1.506-0.505,2.276-0.299l41.618,11.146c1.602,0.428,2.551,2.072,2.121,3.674      C424.576,394.9,423.363,395.786,422.039,395.786z"></path></g><g><path d="M224.827,241.172H103.424c-1.657,0-3-1.343-3-3c0-1.657,1.343-3,3-3h121.402c1.657,0,3,1.343,3,3      C227.826,239.829,226.483,241.172,224.827,241.172z"></path></g><g><path d="M309.303,267.439H103.424c-1.657,0-3-1.342-3-3c0-1.656,1.343-3,3-3h205.878c1.657,0,3,1.344,3,3      C312.302,266.098,310.96,267.439,309.303,267.439z"></path></g><g><path d="M224.827,293.742H103.424c-1.657,0-3-1.344-3-3c0-1.657,1.343-3,3-3h121.402c1.657,0,3,1.343,3,3      C227.826,292.398,226.483,293.742,224.827,293.742z"></path></g><g><path d="M309.303,320.01H103.424c-1.657,0-3-1.343-3-3c0-1.656,1.343-3,3-3h205.878c1.657,0,3,1.344,3,3      C312.302,318.667,310.96,320.01,309.303,320.01z"></path></g><g><path d="M224.827,346.279H103.424c-1.657,0-3-1.344-3-3c0-1.657,1.343-3,3-3h121.402c1.657,0,3,1.343,3,3      C227.826,344.936,226.483,346.279,224.827,346.279z"></path></g><g><path d="M314.713,472.309H40.425c-1.657,0-3-1.343-3-3c0-1.656,1.343-3,3-3h274.288c1.657,0,3,1.344,3,3      C317.713,470.966,316.37,472.309,314.713,472.309z"></path></g><g><path d="M390.846,488.996H201.035c-1.657,0-3-1.343-3-3s1.343-3,3-3h189.811c1.657,0,3,1.343,3,3      S392.503,488.996,390.846,488.996z"></path></g><g><path d="M433.998,488.996H410.27c-1.656,0-3-1.343-3-3s1.344-3,3-3h23.729c1.657,0,3,1.343,3,3S435.655,488.996,433.998,488.996      z"></path></g><g><path d="M119.556,488.475H29.605c-1.657,0-3-1.343-3-3c0-1.656,1.343-3,3-3h89.951c1.657,0,3,1.344,3,3      C122.556,487.132,121.213,488.475,119.556,488.475z"></path></g></g></g></g></svg>