<svg width="54" height="59" viewBox="0 0 54 59" fill="none" xmlns="http://www.w3.org/2000/svg">
<title>danielcooper.io logo</title>
<rect x="1.35032" width="37.9906" height="37.9906" transform="matrix(0.675158 -0.737673 0.675158 0.737673 0.438639 30.4961)" stroke="#202B35" stroke-width="2"/>
<path d="M23.7545 15.256C25.8785 15.256 27.4685 15.79 28.5245 16.858C29.5805 17.914 30.1085 19.456 30.1085 21.484C30.1085 22.792 29.8505 23.938 29.3345 24.922C28.8185 25.906 28.0685 26.668 27.0845 27.208C26.1125 27.736 24.9485 28 23.5925 28L22.5485 27.982C21.8765 27.958 21.3845 27.946 21.0725 27.946C20.0885 27.946 19.3445 27.964 18.8405 28V27.64C19.2725 27.616 19.5845 27.568 19.7765 27.496C19.9805 27.424 20.1185 27.286 20.1905 27.082C20.2625 26.878 20.2985 26.548 20.2985 26.092V17.164C20.2985 16.708 20.2625 16.378 20.1905 16.174C20.1185 15.97 19.9805 15.832 19.7765 15.76C19.5845 15.688 19.2725 15.64 18.8405 15.616V15.256C19.2605 15.292 19.8425 15.31 20.5865 15.31L22.1165 15.292C22.9325 15.268 23.4785 15.256 23.7545 15.256ZM23.3045 15.58C22.9325 15.58 22.6505 15.622 22.4585 15.706C22.2785 15.79 22.1525 15.94 22.0805 16.156C22.0085 16.372 21.9725 16.696 21.9725 17.128V26.128C21.9725 26.56 22.0085 26.884 22.0805 27.1C22.1525 27.316 22.2785 27.466 22.4585 27.55C22.6505 27.634 22.9385 27.676 23.3225 27.676C24.5945 27.676 25.5965 27.448 26.3285 26.992C27.0605 26.524 27.5705 25.846 27.8585 24.958C28.1585 24.07 28.3085 22.936 28.3085 21.556C28.3085 20.176 28.1465 19.054 27.8225 18.19C27.4985 17.314 26.9705 16.66 26.2385 16.228C25.5185 15.796 24.5405 15.58 23.3045 15.58ZM32.956 25.948C33.268 25.948 33.538 26.062 33.766 26.29C33.994 26.518 34.108 26.788 34.108 27.1C34.108 27.412 33.994 27.682 33.766 27.91C33.538 28.138 33.268 28.252 32.956 28.252C32.644 28.252 32.374 28.138 32.146 27.91C31.918 27.682 31.804 27.412 31.804 27.1C31.804 26.788 31.918 26.518 32.146 26.29C32.374 26.062 32.644 25.948 32.956 25.948Z" fill="#202B35"/>
<path d="M20.268 41.948C20.58 41.948 20.85 42.062 21.078 42.29C21.306 42.518 21.42 42.788 21.42 43.1C21.42 43.412 21.306 43.682 21.078 43.91C20.85 44.138 20.58 44.252 20.268 44.252C19.956 44.252 19.686 44.138 19.458 43.91C19.23 43.682 19.116 43.412 19.116 43.1C19.116 42.788 19.23 42.518 19.458 42.29C19.686 42.062 19.956 41.948 20.268 41.948ZM29.2132 31.004C29.9332 31.004 30.5452 31.106 31.0492 31.31C31.5532 31.514 32.0452 31.802 32.5252 32.174C32.6572 32.282 32.7712 32.336 32.8672 32.336C33.1072 32.336 33.2632 31.976 33.3352 31.256H33.7492C33.7012 32.036 33.6772 33.416 33.6772 35.396H33.2632C33.1312 34.616 33.0112 34.058 32.9032 33.722C32.7952 33.374 32.6152 33.044 32.3632 32.732C32.0032 32.264 31.5412 31.916 30.9772 31.688C30.4252 31.448 29.8252 31.328 29.1772 31.328C28.3972 31.328 27.7132 31.586 27.1252 32.102C26.5492 32.618 26.0992 33.356 25.7752 34.316C25.4512 35.264 25.2892 36.38 25.2892 37.664C25.2892 38.972 25.4632 40.094 25.8112 41.03C26.1592 41.966 26.6392 42.68 27.2512 43.172C27.8752 43.652 28.5772 43.892 29.3572 43.892C29.9572 43.892 30.5392 43.778 31.1032 43.55C31.6672 43.322 32.1112 42.98 32.4352 42.524C32.6752 42.188 32.8492 41.828 32.9572 41.444C33.0652 41.06 33.1672 40.472 33.2632 39.68H33.6772C33.6772 41.744 33.7012 43.184 33.7492 44H33.3352C33.2992 43.616 33.2452 43.346 33.1732 43.19C33.1132 43.022 33.0232 42.938 32.9032 42.938C32.8072 42.938 32.6812 42.986 32.5252 43.082C31.9852 43.466 31.4692 43.76 30.9772 43.964C30.4852 44.156 29.8912 44.252 29.1952 44.252C28.0552 44.252 27.0532 43.994 26.1892 43.478C25.3372 42.962 24.6712 42.218 24.1912 41.246C23.7232 40.262 23.4892 39.092 23.4892 37.736C23.4892 36.416 23.7292 35.246 24.2092 34.226C24.7012 33.206 25.3792 32.414 26.2432 31.85C27.1192 31.286 28.1092 31.004 29.2132 31.004Z" fill="#202B35"/>
</svg>
