<svg height='100px' width='100px'  fill="#000000" xmlns="http://www.w3.org/2000/svg" xmlns:xlink="http://www.w3.org/1999/xlink" version="1.1" x="0px" y="0px" viewBox="0 0 100 100" enable-background="new 0 0 100 100" xml:space="preserve">

<defs>
    <linearGradient id="gradient" gradientTransform="">
      <stop offset="0%"  stop-color="#daa45c80" />
      <stop offset="95%" stop-color="rgb(238, 174, 201)" />
    </linearGradient>
</defs>

<g fill="url('#gradient')">

<path d="M94.998,40.232l-27.885-8.67L50,8.772L32.889,31.561L5.001,40.232L22.28,63.047l-0.058,28.182L50,82.473l27.78,8.756   l-0.059-28.18L94.998,40.232z M50,79.328l-24.77,7.807l0.052-25.094L9.972,41.828l24.733-7.69L50,13.768l15.296,20.37l24.73,7.689   L74.719,62.043l0.053,25.092L50,79.328z"></path>

<path d="M71.234,50.74c0.572-0.756,0.926-1.687,0.926-2.706c0-2.487-2.023-4.511-4.51-4.511h-6.664   c-1.408,0-2.654,0.663-3.48,1.679h-2.389c1.293-2.313,2.393-4.767,2.221-7.726c-0.162-2.788-1.238-5.042-3.111-6.517   c-0.729-0.575-1.633-0.805-2.555-0.624c-2.118,0.404-2.346,1.726-2.346,2.275c0,4.32-1.755,5.995-3.787,7.934   c-1.122,1.07-2.282,2.177-3.188,3.743c-0.346,0.598-0.892,0.914-1.58,0.914c-0.46,0-1.143,0.077-1.87,0.163l0.003-2.969   l-9.598-0.07l-0.021,3l6.617,0.049l-0.001,0.853c-0.149,0.233-0.238,0.509-0.238,0.806v22.43c0,0.271,0.079,0.531,0.215,0.76   l-0.001,0.994l-8.33-0.031l-0.012,3l11.338,0.043l0.003-3.35l4.92-0.246h17.031c0.072,0,0.137-0.02,0.209-0.023H67.6   c2.486,0,4.51-2.023,4.51-4.512c0-1.008-0.344-1.93-0.904-2.682c0.918-0.826,1.508-2.01,1.508-3.34c0-1.16-0.453-2.209-1.178-3.01   c0.725-0.801,1.178-1.85,1.178-3.012C72.713,52.74,72.137,51.564,71.234,50.74z M69.713,60.076c0,0.834-0.678,1.512-1.512,1.512   H67.6h-7.227h-1.592c-0.834,0-1.512-0.678-1.512-1.512c0-0.832,0.678-1.51,1.512-1.51h9.42   C69.035,58.566,69.713,59.244,69.713,60.076z M58.781,55.566c-0.834,0-1.512-0.678-1.512-1.512c0-0.832,0.678-1.51,1.512-1.51   h2.205h6.664h0.551c0.834,0,1.512,0.678,1.512,1.51c0,0.834-0.678,1.512-1.512,1.512H58.781z M67.65,46.523   c0.832,0,1.51,0.678,1.51,1.511s-0.678,1.511-1.51,1.511h-6.664c-0.832,0-1.51-0.678-1.51-1.511s0.678-1.511,1.51-1.511H67.65z    M43.701,67.635l-4.822,0.24l0.02-19.49c0.082-0.01,0.162-0.019,0.244-0.028c0.619-0.073,1.32-0.155,1.629-0.155   c1.769,0,3.291-0.879,4.178-2.413c0.689-1.194,1.646-2.107,2.66-3.073c2.118-2.021,4.506-4.299,4.704-9.414   c0.029,0.007,0.055,0.014,0.057,0.014c1.197,0.943,1.861,2.402,1.975,4.335c0.156,2.688-1.213,5.027-2.66,7.505l-0.465,0.797   c-0.074,0.13-0.123,0.271-0.156,0.413h-0.031c0,0.098-0.006,0.186-0.006,0.282c-0.002,0.032-0.002,0.063-0.002,0.095   c-0.077,7.715-2.458,10.745-8.428,10.745v3c9.243,0,11.11-6.553,11.389-12.285h2.508c0.025,0.627,0.176,1.218,0.43,1.755   c-1.559,0.71-2.652,2.276-2.652,4.098c0,1.162,0.453,2.211,1.178,3.012c-0.725,0.801-1.178,1.85-1.178,3.01   c0,1.631,0.879,3.051,2.18,3.842c-0.361,0.65-0.586,1.387-0.586,2.18c0,0.541,0.111,1.055,0.287,1.535L43.701,67.635z M67.6,67.609   h-7.227c-0.832,0-1.51-0.678-1.51-1.512c0-0.832,0.678-1.51,1.51-1.51H67.6c0.832,0,1.51,0.678,1.51,1.51   C69.109,66.932,68.432,67.609,67.6,67.609z"></path>

<rect x="8.438" y="15.895" transform="matrix(0.7071 0.7071 -0.7071 0.7071 17.3293 -7.0452)" width="17.46" height="3"></rect>

<rect x="81.331" y="8.664" transform="matrix(0.7071 0.7071 -0.7071 0.7071 36.5601 -53.4758)" width="3" height="17.459"></rect>

<rect x="88.71" y="64.712" transform="matrix(0.5001 -0.866 0.866 0.5001 -18.5 114.8372)" width="3" height="17.459"></rect>

<rect x="8.29" y="64.712" transform="matrix(-0.5001 -0.866 0.866 -0.5001 -48.9139 118.6446)" width="3" height="17.46"></rect>
</g>

</svg>